<svg xmlns="http://www.w3.org/2000/svg" xmlns:xlink="http://www.w3.org/1999/xlink" width="19.534" height="19.534" viewBox="0 0 19.534 19.534"><defs><style>.a{fill:url(#a);}.b{fill:url(#b);}.c{fill:url(#c);}</style><linearGradient id="a" x1="0.5" y1="0.008" x2="0.5" y2="0.998" gradientUnits="objectBoundingBox"><stop offset="0" stop-color="#e09b3d"/><stop offset="0.3" stop-color="#c74c4d"/><stop offset="0.6" stop-color="#c21975"/><stop offset="1" stop-color="#7024c4"/></linearGradient><linearGradient id="b" y1="-0.451" y2="1.462" xlink:href="#a"/><linearGradient id="c" y1="-1.396" y2="6.586" xlink:href="#a"/></defs><path class="a" d="M13.715,0h-7.9A5.826,5.826,0,0,0,0,5.819v7.9a5.826,5.826,0,0,0,5.819,5.819h7.9a5.826,5.826,0,0,0,5.819-5.819v-7.9A5.826,5.826,0,0,0,13.715,0Zm3.854,13.715a3.854,3.854,0,0,1-3.854,3.854h-7.9a3.854,3.854,0,0,1-3.854-3.854v-7.9A3.854,3.854,0,0,1,5.819,1.965h7.9a3.854,3.854,0,0,1,3.854,3.854v7.9Z"/><path class="b" d="M138.052,133a5.052,5.052,0,1,0,5.052,5.052A5.058,5.058,0,0,0,138.052,133Zm0,8.139a3.087,3.087,0,1,1,3.087-3.087A3.087,3.087,0,0,1,138.052,141.139Z" transform="translate(-128.285 -128.285)"/><circle class="c" cx="1.211" cy="1.211" r="1.211" transform="translate(13.618 3.542)"/></svg>