<svg xmlns="http://www.w3.org/2000/svg" width="28.471" height="28.623" viewBox="0 0 28.471 28.623"><defs><style>.a{fill:#ed1c29;}</style></defs><g transform="translate(0 0)"><path class="a" d="M4.6,1.585a12.6,12.6,0,0,0-3.13,4.448A8.682,8.682,0,0,0,.924,8.669,6.307,6.307,0,0,0,1.473,11.3a3.28,3.28,0,0,0,.329.6l.329.6c.275.384.549.714.824,1.1.659.714,1.263,1.428,1.922,2.087,1.318,1.373,2.69,2.745,4.063,4.063l4.118,4.008,1.043.988.494.494c.165.165.329.275.494.439a9.981,9.981,0,0,0,2.361,1.318,7.418,7.418,0,0,0,5.216,0,8.856,8.856,0,0,0,2.361-1.263c.329-.275.714-.6,1.043-.933l.494-.494.22-.22.165-.165.055-.11s.11-.165.165-.275a.7.7,0,0,0,.055-.329,2.155,2.155,0,0,0-.165-.769,2.265,2.265,0,0,0-.549-.714l-.714-.714A18.922,18.922,0,0,0,24.26,19.6l-.769-.714-.384-.329v-.165h0c-.055,0-.11-.055-.165-.055a1.7,1.7,0,0,0-1.428.439,8.691,8.691,0,0,0-.714.714,10.147,10.147,0,0,1-.769.769,3.658,3.658,0,0,1-2.251,1.1,2.712,2.712,0,0,1-1.318-.275,4.177,4.177,0,0,1-1.043-.659,2.537,2.537,0,0,1-.384-.384l-.384-.384-.769-.769L12.4,17.344l-2.91-3.075L8.721,13.5l-.384-.384-.165-.22a1.2,1.2,0,0,0-.22-.275,4.011,4.011,0,0,1-.494-2.361,4.8,4.8,0,0,1,.275-1.208A3.517,3.517,0,0,1,8.446,8.01L9.874,6.527h0l.11-.11a.467.467,0,0,0,.165-.275.814.814,0,0,0,.055-.384,2.62,2.62,0,0,0-.439-.879,2.75,2.75,0,0,0-.384-.439L8.885,4l-.933-.879-.933-.879L6.634,1.86l-.22-.22-.11-.11L6.25,1.476A1.634,1.634,0,0,0,5.426,1.2,1.413,1.413,0,0,0,4.6,1.585ZM3.779.707A2.67,2.67,0,0,1,5.316-.007,2.305,2.305,0,0,1,6.909.487c.11.055.165.055.22.165l.11.11.22.22.494.439.933.933.933.933.439.439a4.95,4.95,0,0,1,.494.549,3.073,3.073,0,0,1,.659,1.483,1.9,1.9,0,0,1-.11.933,2.387,2.387,0,0,1-.22.384,1.864,1.864,0,0,1-.329.329l.11-.11L9.325,8.833a2.253,2.253,0,0,0-.714,1.537,3.16,3.16,0,0,0,.329,1.757c.055.055.055.11.11.165l.165.165.384.384.769.769,2.965,3.02,1.483,1.483.769.769.384.384a2.051,2.051,0,0,0,.384.329,2.706,2.706,0,0,0,1.483.659,2.772,2.772,0,0,0,1.483-.769,8.748,8.748,0,0,0,.714-.714,11.589,11.589,0,0,1,.824-.824,3.655,3.655,0,0,1,1.1-.659,2.122,2.122,0,0,1,1.428,0c.11.055.22.055.329.165.055.055.11.055.22.11l.11.11.384.329.824.714c.549.494,1.043.988,1.537,1.483l.769.769a4.568,4.568,0,0,1,.714.988,2.334,2.334,0,0,1-.22,2.636l.055-.11c-.11.11-.11.165-.165.22l-.11.165-.275.275c-.165.165-.384.329-.549.494-.384.329-.714.659-1.1.988a11.451,11.451,0,0,1-2.69,1.428,8.331,8.331,0,0,1-5.985,0A9.584,9.584,0,0,1,14.6,26.569c-.22-.165-.384-.329-.6-.494L13.5,25.58l-1.043-.988c-1.373-1.373-2.745-2.69-4.063-4.118-1.318-1.373-2.636-2.8-3.9-4.228-.659-.714-1.318-1.428-1.922-2.141-.329-.384-.6-.769-.933-1.153l-.494-.714a3.69,3.69,0,0,1-.329-.659l-.275-.714c-.11-.22-.11-.494-.22-.714A6.912,6.912,0,0,1,.1,8.669,8.843,8.843,0,0,1,.594,5.7,12.582,12.582,0,0,1,3.779.707Z" transform="translate(-0.1 0.015)"/></g><g transform="translate(2.893 2.095)"><path class="a" d="M6.264,3.965l5.381,5.161a.777.777,0,1,1-1.1,1.1l-.055-.055L5.441,4.679a.583.583,0,0,1,.11-.714A.469.469,0,0,1,6.264,3.965Z" transform="translate(-5.369 -3.8)"/></g><g transform="translate(19.677 19.068)"><path class="a" d="M37.289,34.98l5,5.491a.452.452,0,0,1-.055.659.431.431,0,0,1-.6,0l-5.436-5.052a.779.779,0,0,1-.055-1.1.754.754,0,0,1,1.153,0C37.234,34.925,37.289,34.925,37.289,34.98Z" transform="translate(-35.937 -34.712)"/></g></svg>