<svg xmlns="http://www.w3.org/2000/svg" width="25.642" height="20.755" viewBox="0 0 25.642 20.755"><defs><style>.a{fill:#ed1c29;}</style></defs><path class="a" d="M24.434,13.233V4.118a3.377,3.377,0,0,0-.055-.714,2.862,2.862,0,0,0-2.416-2.141h-5.71l-6.644.055H4.667a3.785,3.785,0,0,0-1.428.165A2.685,2.685,0,0,0,1.592,3.349c-.055.275-.055.494-.11.659v.824L1.428,6.479l-.22,13.288h0l-.714-.22c.659-.988,1.373-1.977,2.032-2.91h0l.055-.055a1.612,1.612,0,0,1,1.043-.549h.769l1.483-.055,3.02-.11c2.032-.055,4.008-.11,6.04-.11,2.032-.055,4.008,0,6.04.11l.714.055a2.252,2.252,0,0,0,.6-.055,2.723,2.723,0,0,0,1.1-.439A3.1,3.1,0,0,0,24.434,13.233Zm1.208,0a4.2,4.2,0,0,1-1.428,3.13,4.1,4.1,0,0,1-1.592.879,4.714,4.714,0,0,1-.933.165l-.769.055c-2.032.11-4.008.11-6.04.11s-4.008-.055-6.04-.11l-3.02-.11-1.428-.11H3.679a.355.355,0,0,0-.275.11l.055-.055c-.769.879-1.537,1.812-2.361,2.69l-.659.769-.055-.988h0C.165,15.319.11,10.927,0,6.534V4.008A6.05,6.05,0,0,1,.11,3.02,3.983,3.983,0,0,1,2.745.22,8.921,8.921,0,0,1,3.789,0h5.82l6.644.055h5.381a1.52,1.52,0,0,1,.494.055,4.65,4.65,0,0,1,.933.22,3.968,3.968,0,0,1,2.471,2.8,6.114,6.114,0,0,1,.11.933v9.17Z"/><g transform="translate(6.15 4.887)"><path class="a" d="M11.749,8.955c1.043-.055,2.087-.055,3.13-.055s2.087,0,3.13.055c1.043,0,2.087.055,3.13.11s2.087.165,3.13.275c.11,0,.22.11.165.22a.175.175,0,0,1-.165.165c-1.043.11-2.087.22-3.13.275s-2.087.11-3.13.11-2.087.055-3.13.055-2.087,0-3.13-.055a.564.564,0,0,1-.549-.6A.64.64,0,0,1,11.749,8.955Z" transform="translate(-11.2 -8.9)"/><g transform="translate(0.26 3.13)"><path class="a" d="M24.372,15.808c-1.043.055-2.087.055-3.13.055s-2.087,0-3.13-.055c-1.043,0-2.087-.055-3.13-.11s-2.087-.165-3.13-.275c-.11,0-.22-.11-.165-.22a.175.175,0,0,1,.165-.165c1.043-.11,2.087-.22,3.13-.275s2.087-.11,3.13-.11,2.087-.055,3.13-.055,2.087,0,3.13.055a.564.564,0,0,1,.549.6A.705.705,0,0,1,24.372,15.808Z" transform="translate(-11.673 -14.6)"/></g><g transform="translate(0.26 6.699)"><path class="a" d="M24.372,22.308c-1.043.055-2.087.055-3.13.055s-2.087,0-3.13-.055c-1.043,0-2.087-.055-3.13-.11s-2.087-.165-3.13-.275c-.11,0-.22-.11-.165-.22a.175.175,0,0,1,.165-.165c1.043-.11,2.087-.22,3.13-.275s2.087-.11,3.13-.11,2.087-.055,3.13-.055,2.087,0,3.13.055a.564.564,0,0,1,.549.6A.705.705,0,0,1,24.372,22.308Z" transform="translate(-11.673 -21.1)"/></g></g></svg>