<svg xmlns="http://www.w3.org/2000/svg" width="23.994" height="31.031" viewBox="0 0 23.994 31.031"><defs><style>.a{fill:#fff;}</style></defs><g transform="translate(8.586 8.332)"><path class="a" d="M18.944,16.122l-.988.165a2.291,2.291,0,0,0-.879.494,2.8,2.8,0,0,0-.933,1.922,3.071,3.071,0,0,0,.714,2.141A2.915,2.915,0,0,0,21.909,18.7a2.988,2.988,0,0,0-.988-1.977A2.832,2.832,0,0,0,18.944,16.122Zm0-.933a3.606,3.606,0,0,1,2.416,1.153,3.31,3.31,0,0,1-.22,4.612,3.265,3.265,0,0,1-2.2.879,3.15,3.15,0,0,1-2.251-.879,3.4,3.4,0,0,1-1.1-2.251,3.212,3.212,0,0,1,.879-2.471,4.114,4.114,0,0,1,1.1-.824A3.01,3.01,0,0,1,18.944,15.188Z" transform="translate(-15.588 -15.174)"/></g><g transform="translate(0 0)"><path class="a" d="M11.893,1.208A11.053,11.053,0,0,0,7.281,2.2,11.325,11.325,0,0,0,3.492,5.052,11.129,11.129,0,0,0,1.3,9.279a11.661,11.661,0,0,0-.22,4.777,10.772,10.772,0,0,0,1.867,4.393c.988,1.263,2.087,2.636,3.075,3.9l6.26,7.852h-.769c2.032-2.69,4.063-5.271,6.15-7.907L19.2,20.316l.769-.988a12.061,12.061,0,0,0,.769-.988A10.454,10.454,0,0,0,22.545,14a10.58,10.58,0,0,0-.22-4.722,10.791,10.791,0,0,0-2.141-4.173A10.519,10.519,0,0,0,11.893,1.208Zm0-1.208A12.1,12.1,0,0,1,23.534,9a11.974,11.974,0,0,1,.22,5.216,12.124,12.124,0,0,1-2.032,4.832c-.275.384-.549.714-.769,1.043l-.769.988-1.537,1.977c-2.087,2.636-4.173,5.216-6.314,7.8h0a.513.513,0,0,1-.714.055l-.055-.055h0L5.3,22.9c-1.043-1.318-2.087-2.581-3.13-3.953A12.718,12.718,0,0,1,.143,14.166,11.692,11.692,0,0,1,.362,9,11.892,11.892,0,0,1,2.723,4.393,12.339,12.339,0,0,1,11.893,0Z" transform="translate(0.049 0)"/></g></svg>