<svg xmlns="http://www.w3.org/2000/svg" width="29.362" height="24.983" viewBox="0 0 29.362 24.983"><defs><style>.a{fill:#ed1c29;}</style></defs><g transform="translate(0)"><path class="a" d="M22.557,12.19v-8.4A2.673,2.673,0,0,0,22.5,3.13,2.551,2.551,0,0,0,20.91,1.373c-.22-.055-.384-.11-.6-.165H4.328a3.345,3.345,0,0,0-1.318.165A2.638,2.638,0,0,0,1.528,3.13a2.335,2.335,0,0,0-.11.6V6.04l-.275,12.19h0l-.659-.22c.6-.933,1.263-1.812,1.922-2.69h0l.055-.055a1.708,1.708,0,0,1,.933-.494l.769-.055,1.373-.055,2.745-.055c1.867-.055,3.679-.055,5.546-.11s3.679,0,5.546.055h.659a1.868,1.868,0,0,0,.549-.055,2.288,2.288,0,0,0,.988-.439A2.217,2.217,0,0,0,22.557,12.19Zm1.1,0a3.913,3.913,0,0,1-1.318,2.91,3.214,3.214,0,0,1-1.483.769l-.824.165-.714.055c-1.867.11-3.679.11-5.546.055-1.867,0-3.679-.055-5.546-.11l-2.745-.055-1.373-.055H3.449a.355.355,0,0,0-.275.11l.055-.055L1.088,18.449l-.6.659-.055-.879h0C.21,14.166.155,10.1.1,6.04V3.734A5.41,5.41,0,0,1,.21,2.8,3.759,3.759,0,0,1,2.681.22,4.408,4.408,0,0,1,4.328,0H8.94l6.095.055h5a1.209,1.209,0,0,1,.439.055,5.141,5.141,0,0,1,.879.22A3.668,3.668,0,0,1,23.6,2.91c0,.275.055.6.055.879v8.4Z" transform="translate(-0.1)"/></g><g transform="translate(5.944 6.189)"><path class="a" d="M11.735,20.677c.055.494.055,1.043.11,1.537l.055.769a2.36,2.36,0,0,0,.11.659A2.562,2.562,0,0,0,13.6,25.4a1.974,1.974,0,0,0,.6.11h5.271c2.032,0,4.118,0,6.15.055,1.043,0,2.032.055,3.075.055l1.537.055h.769a1.567,1.567,0,0,1,1.043.494l.055.055c.659.879,1.263,1.757,1.922,2.69h0l-.659.22c-.165-1.812-.22-3.624-.275-5.381-.055-1.812,0-3.624,0-5.381l.055-2.69V14.417a3.313,3.313,0,0,0-.329-1.043A3.067,3.067,0,0,0,31.008,12a9.836,9.836,0,0,0-1.318-.11,12.55,12.55,0,0,1-1.373-.11v-.329c.439-.055.879-.055,1.373-.11a11.027,11.027,0,0,1,1.373-.055,3.494,3.494,0,0,1,2.581,1.537,3.458,3.458,0,0,1,.549,1.483,12.9,12.9,0,0,1,.055,1.428l.055,2.69c.055,1.812.055,3.624,0,5.381q-.082,2.718-.329,5.436l-.11.824-.549-.6h0l-2.141-2.471.055.055a.4.4,0,0,0-.329-.11h-.769l-1.537.055c-1.043,0-2.032.055-3.075.055H14.425a1.07,1.07,0,0,1-.439-.055,4.115,4.115,0,0,1-.879-.275,3.8,3.8,0,0,1-2.141-2.8,2.363,2.363,0,0,1,0-.879l.055-.769a14.47,14.47,0,0,1,.11-1.537h.6Z" transform="translate(-10.925 -11.272)"/></g><g transform="translate(5.82 7.028)"><ellipse class="a" cx="1.043" cy="1.043" rx="1.043" ry="1.043"/><ellipse class="a" cx="1.043" cy="1.043" rx="1.043" ry="1.043" transform="translate(4.997)"/><ellipse class="a" cx="1.043" cy="1.043" rx="1.043" ry="1.043" transform="translate(9.993)"/></g></svg>