<svg xmlns="http://www.w3.org/2000/svg" width="21.32" height="14" viewBox="0 0 21.32 14"><defs><style>.a{fill:#4d4d4d;}</style></defs><path class="a" d="M19.65,14H1.67A1.668,1.668,0,0,1,0,12.33V1.67A1.668,1.668,0,0,1,1.67,0H19.614A1.676,1.676,0,0,1,21.32,1.67V12.294A1.676,1.676,0,0,1,19.65,14ZM1.67.711a.955.955,0,0,0-.959.959V12.294a.955.955,0,0,0,.959.959H19.614a.955.955,0,0,0,.959-.959V1.67A.9.9,0,0,0,19.65.711Z"/><g transform="translate(1.99 9.31)"><path class="a" d="M7.945,26.911H5.955a.355.355,0,1,1,0-.711h1.99a.355.355,0,0,1,0,.711Z" transform="translate(-5.6 -26.2)"/></g><g transform="translate(5.33 9.31)"><path class="a" d="M17.345,26.911h-1.99a.355.355,0,1,1,0-.711h1.99a.336.336,0,0,1,.355.355A.356.356,0,0,1,17.345,26.911Z" transform="translate(-15 -26.2)"/></g><g transform="translate(0.32 2.665)"><path class="a" d="M21.225,8.211H1.255a.355.355,0,0,1,0-.711H21.189a.336.336,0,0,1,.355.355A.328.328,0,0,1,21.225,8.211Z" transform="translate(-0.9 -7.5)"/></g><g transform="translate(0.32 5.33)"><path class="a" d="M21.225,15.711H1.255a.355.355,0,1,1,0-.711H21.189a.336.336,0,0,1,.355.355A.328.328,0,0,1,21.225,15.711Z" transform="translate(-0.9 -15)"/></g></svg>