<svg xmlns="http://www.w3.org/2000/svg" width="24.885" height="25.709" viewBox="0 0 24.885 25.709"><defs><style>.a{fill:#ed1c29;}</style></defs><path class="a" d="M21.264,10.512a12.729,12.729,0,0,1-.6,4.2,9.6,9.6,0,0,1-2.343,3.6,10.463,10.463,0,0,1-7.749,2.823A11.436,11.436,0,0,1,3.244,17.9,10.76,10.76,0,0,1,.961,14.537,8.636,8.636,0,0,1,0,10.512,10.654,10.654,0,0,1,3.063,3.063,10.7,10.7,0,0,1,10.512,0,10.955,10.955,0,0,1,18.02,3.063,11.152,11.152,0,0,1,21.264,10.512Zm-1.922,0a9.036,9.036,0,0,0-2.463-6.367A9.5,9.5,0,0,0,14,2.162a9.708,9.708,0,0,0-3.424-.721A9.107,9.107,0,0,0,4.2,4.085a9.32,9.32,0,0,0-2.7,6.367,8.925,8.925,0,0,0,2.583,6.487,8.31,8.31,0,0,0,3,1.922,8.812,8.812,0,0,0,3.484.541,8.009,8.009,0,0,0,3.364-.9,8.929,8.929,0,0,0,2.7-2.042A11.761,11.761,0,0,0,18.5,13.7,6.58,6.58,0,0,0,19.342,10.512Z"/><g transform="translate(16.133 17.034)"><path class="a" d="M29.106,28.743l6.307,7.088a.691.691,0,0,1-.06,1.021.73.73,0,0,1-.961,0L27.3,30.606a1.277,1.277,0,1,1,1.682-1.922C29.046,28.683,29.046,28.743,29.106,28.743Z" transform="translate(-26.858 -28.358)"/></g></svg>