<svg xmlns="http://www.w3.org/2000/svg" width="19.274" height="19.284" viewBox="0 0 19.274 19.284"><defs><style>.a{fill:#475993;}</style></defs><path class="a" d="M16.684,0H2.6A2.6,2.6,0,0,0,0,2.6V16.684a2.6,2.6,0,0,0,2.6,2.6H9.547l.014-6.892H7.769a.428.428,0,0,1-.425-.42L7.335,9.75a.423.423,0,0,1,.425-.425H9.547V7.179A3.507,3.507,0,0,1,13.288,3.33h1.821a.426.426,0,0,1,.425.425V5.628a.426.426,0,0,1-.425.425H13.991c-1.208,0-1.443.575-1.443,1.415V9.326H15.2a.423.423,0,0,1,.42.472l-.264,2.222a.423.423,0,0,1-.42.373H12.557l-.014,6.892h4.132a2.6,2.6,0,0,0,2.6-2.6V2.6A2.587,2.587,0,0,0,16.684,0Z"/></svg>