<svg xmlns="http://www.w3.org/2000/svg" width="19.268" height="19.263" viewBox="0 0 19.268 19.263"><defs><style>.a{fill:#0077b7;}</style></defs><path class="a" d="M17.519,0H1.745A1.745,1.745,0,0,0,0,1.745V17.524a1.744,1.744,0,0,0,1.745,1.74H17.524a1.745,1.745,0,0,0,1.745-1.745V1.745A1.753,1.753,0,0,0,17.519,0ZM5.961,16.631a.508.508,0,0,1-.509.509H3.293a.508.508,0,0,1-.509-.509V7.584a.508.508,0,0,1,.509-.509H5.451a.508.508,0,0,1,.509.509v9.047ZM4.372,6.223A2.052,2.052,0,1,1,6.424,4.17,2.051,2.051,0,0,1,4.372,6.223ZM17.241,16.676a.463.463,0,0,1-.464.464H14.463A.463.463,0,0,1,14,16.676V12.43c0-.635.187-2.774-1.654-2.774-1.427,0-1.72,1.467-1.775,2.123v4.9a.463.463,0,0,1-.464.464H7.867a.463.463,0,0,1-.464-.464V7.544a.463.463,0,0,1,.464-.464h2.239a.463.463,0,0,1,.464.464v.792a3.175,3.175,0,0,1,2.99-1.407c3.711,0,3.686,3.464,3.686,5.371l-.005,4.377Z"/></svg>